<?xml version="1.0" encoding="UTF-8" standalone="no"?>
<svg
   version="1.1"
   width="155.61958"
   height="84.393692"
   ng-if="$root.removeAll != true"
   class="ng-scope"
   id="svg14"
   xml:space="preserve"
   sodipodi:docname="logo_baba.svg"
   inkscape:version="1.3.2 (091e20ef0f, 2023-11-25, custom)"
   xmlns:inkscape="http://www.inkscape.org/namespaces/inkscape"
   xmlns:sodipodi="http://sodipodi.sourceforge.net/DTD/sodipodi-0.dtd"
   xmlns:xlink="http://www.w3.org/1999/xlink"
   xmlns="http://www.w3.org/2000/svg"
   xmlns:svg="http://www.w3.org/2000/svg"><sodipodi:namedview
     id="namedview1"
     pagecolor="#ffffff"
     bordercolor="#000000"
     borderopacity="0.25"
     inkscape:showpageshadow="2"
     inkscape:pageopacity="0.0"
     inkscape:pagecheckerboard="0"
     inkscape:deskcolor="#d1d1d1"
     inkscape:export-bgcolor="#ffffff00"
     inkscape:zoom="2.9034985"
     inkscape:cx="96.952005"
     inkscape:cy="71.982128"
     inkscape:window-width="1366"
     inkscape:window-height="702"
     inkscape:window-x="0"
     inkscape:window-y="38"
     inkscape:window-maximized="1"
     inkscape:current-layer="g52" /><defs
     id="defs14"><linearGradient
       id="linearGradient69"><stop
         style="stop-color:#11d204;stop-opacity:1;"
         offset="0"
         id="stop69" /><stop
         style="stop-color:#118011;stop-opacity:1;"
         offset="1"
         id="stop70" /></linearGradient><linearGradient
       xlink:href="#linearGradient69"
       id="linearGradient70"
       x1="47.694195"
       y1="8.7077465"
       x2="143.05643"
       y2="8.7077465"
       gradientUnits="userSpaceOnUse" /><filter
       style="color-interpolation-filters:sRGB"
       id="filter86"
       x="-0.30200637"
       y="-0.63204791"
       width="1.6040127"
       height="2.2640958"><feGaussianBlur
         stdDeviation="6"
         in="SourceGraphic"
         result="result0"
         id="feGaussianBlur84" /><feDiffuseLighting
         lighting-color="#ffffff"
         diffuseConstant="1"
         surfaceScale="4"
         result="result5"
         id="feDiffuseLighting84"><feDistantLight
           elevation="45"
           azimuth="235"
           id="feDistantLight84" /></feDiffuseLighting><feComposite
         k1="1.4"
         in2="SourceGraphic"
         in="result5"
         result="fbSourceGraphic"
         operator="arithmetic"
         id="feComposite84"
         k2="0"
         k3="0"
         k4="0" /><feGaussianBlur
         result="result0"
         in="fbSourceGraphic"
         stdDeviation="6"
         id="feGaussianBlur85" /><feSpecularLighting
         specularExponent="25"
         specularConstant="1"
         surfaceScale="4"
         lighting-color="#ffffff"
         result="result1"
         in="result0"
         id="feSpecularLighting85"><feDistantLight
           azimuth="235"
           elevation="45"
           id="feDistantLight85" /></feSpecularLighting><feComposite
         k3="1"
         k2="1"
         operator="arithmetic"
         in="fbSourceGraphic"
         in2="result1"
         result="result4"
         id="feComposite85"
         k1="0"
         k4="0" /><feComposite
         operator="in"
         result="result2"
         in2="SourceGraphic"
         in="result4"
         id="feComposite86" /></filter><linearGradient
       xlink:href="#linearGradient69"
       id="linearGradient2"
       gradientUnits="userSpaceOnUse"
       x1="47.694195"
       y1="8.7077465"
       x2="143.05643"
       y2="8.7077465" /><linearGradient
       xlink:href="#linearGradient69"
       id="linearGradient3"
       gradientUnits="userSpaceOnUse"
       x1="47.694195"
       y1="8.7077465"
       x2="143.05643"
       y2="8.7077465" /><linearGradient
       xlink:href="#linearGradient69"
       id="linearGradient4"
       gradientUnits="userSpaceOnUse"
       x1="47.694195"
       y1="8.7077465"
       x2="143.05643"
       y2="8.7077465" /><linearGradient
       xlink:href="#linearGradient69"
       id="linearGradient5"
       gradientUnits="userSpaceOnUse"
       x1="47.694195"
       y1="8.7077465"
       x2="143.05643"
       y2="8.7077465" /><linearGradient
       xlink:href="#linearGradient69"
       id="linearGradient6"
       gradientUnits="userSpaceOnUse"
       x1="47.694195"
       y1="8.7077465"
       x2="143.05643"
       y2="8.7077465" /><linearGradient
       xlink:href="#linearGradient69"
       id="linearGradient7"
       gradientUnits="userSpaceOnUse"
       x1="47.694195"
       y1="8.7077465"
       x2="143.05643"
       y2="8.7077465" /><linearGradient
       xlink:href="#linearGradient69"
       id="linearGradient8"
       gradientUnits="userSpaceOnUse"
       x1="47.694195"
       y1="8.7077465"
       x2="143.05643"
       y2="8.7077465" /><linearGradient
       xlink:href="#linearGradient69"
       id="linearGradient9"
       gradientUnits="userSpaceOnUse"
       x1="47.694195"
       y1="8.7077465"
       x2="143.05643"
       y2="8.7077465" /></defs><rect
     style="fill:none;fill-opacity:1"
     id="rect34"
     width="155.61957"
     height="84.393692"
     x="0"
     y="0"
     inkscape:export-filename="logo_baba.png"
     inkscape:export-xdpi="740.26678"
     inkscape:export-ydpi="740.26678" /><g
     ng-preview=""
     ng-model="config"
     ng-shapes="indexedShapes"
     ng-etape="etape"
     class="ng-presentation ng-pristine ng-valid ng-isolate-scope ng-not-empty ng-touched"
     transform="translate(-12.402567,9.6935622)"
     id="g14"
     style="display:none"><g
       class="logo-preview ng-scope"
       transform="scale(0.39622642)"
       id="g13"><g
         class="logo-ctn"
         id="g1" /><g
         class="main"
         id="g12"><g
           class="formes"
           id="g5"><g
             class="custom"
             name="0"
             transform="matrix(2.4198424,0,0,2.4198424,53,0)"
             id="g4"><path
               d="m 55.126,70.65 c -1.795,0.782 -3.603,1.506 -5.407,2.145 -7.832,2.855 -15.612,4.525 -22.297,4.525 -12.683,0 -17.984,-6.009 -14.984,-14.73 -7.156,11.532 -2.229,19.996 13.335,19.996 11.632,0 26.458,-4.733 39.528,-11.936 z"
               fill="#f6921e"
               id="path1" /><path
               d="M 98.675,7.958 C 98.693,8.01 98.716,8.059 98.732,8.111 98.649,8.05 98.552,8 98.468,7.939 96.896,7.779 95.229,7.69 93.448,7.69 73.704,7.69 47.108,17.813 27.063,31.976 h 10.882 c 3.651,-2.18 7.435,-4.211 11.287,-6.054 3.946,-1.933 7.986,-3.64 12.009,-5.063 10.533,-3.842 20.998,-6.088 29.99,-6.088 17.059,0 24.188,8.082 20.153,19.813 C 120.155,20.45 115.426,9.747 98.675,7.958 Z"
               fill="#26a9e0"
               id="path2" /><path
               d="M 4.561,76.67 C 2.442,72.092 3.45,65.984 7.756,59.042 H 1.882 c -3.243,7.482 -2.26,13.683 2.679,17.628 z"
               fill="#26a9e0"
               id="path3" /><path
               d="m 81.8,4.734 c 7.621,-0.487 13.209,0.719 16.668,3.205 0.068,0.007 0.14,0.012 0.207,0.02 C 96.942,2.464 90.337,-0.606 79.298,0.1 58.634,1.421 29.993,15.459 13.659,31.976 h 5.22 C 36.729,17.473 62.599,5.962 81.8,4.734 Z"
               fill="#f6921e"
               id="path4" /></g></g><g
           class="inline-shape"
           id="g11"><g
             class="contents"
             id="g10"><g
               id="texts"><g
                 class="firstLine"
                 id="g6"><text
                   id="item-iwwhzawcaw1qff8u55olbc006766imen"
                   key="0"
                   dominant-baseline="auto"
                   alignment-baseline="auto"
                   font-family="'Ethnocentric Rg'"
                   font-size="55px"
                   fill="#232323"
                   letter-spacing="0"
                   xml:space="preserve"
                   class=""
                   transform="matrix(0.89239674,0,0,0.89239674,0,125.34149)">MUNDO ATLETA</text></g><g
                 class="sndLine"
                 id="g7"><text
                   id="item-l9w3k3nd0b1k0s2vf805byqu0j3cavzn"
                   key="1"
                   dominant-baseline="auto"
                   alignment-baseline="auto"
                   font-family="'ADAM.CG PRO'"
                   font-size="22px"
                   fill="#232323"
                   letter-spacing="0"
                   xml:space="preserve"
                   class=""
                   transform="translate(130,156.68573)">SUA LOJA DE CONFIANCA</text></g><g
                 class="thirdLine"
                 id="g8" /><g
                 class="initial"
                 id="g9" /></g></g></g></g></g></g><g
     class="logo-ctn"
     id="g3"
     transform="matrix(0.39622642,0,0,0.39622642,-37.597438,-8.2142348)"
     style="display:none"><g
       class="logo"
       id="item-q74brkadhdfmfh2t030zayzqytwehz5m"
       transform="matrix(2.1562744,0,0,2.1562744,183.59085,0)"><path
         d="M 20.685,62.12 20.288,62.053 A 4.312,4.312 0 0 1 19.913,61.984 L 19.136,61.811 C 18.729,61.733 18.322,61.622 17.926,61.516 17.82,61.487 17.714,61.457 17.608,61.43 16.536,61.145 15.485,60.77 14.607,60.443 13.726,60.088 12.691,59.654 11.708,59.134 11.301,58.932 10.895,58.704 10.504,58.483 L 10.312,58.377 10.275,58.356 C 9.784,58.483 9.286,58.639 8.838,58.813 7.846,59.2 6.978,59.431 6.199,59.517 a 38.275,38.275 0 0 0 4.861,5.949 37.863,37.863 0 0 0 9.502,6.936 c -0.089,-0.689 -0.124,-1.426 -0.042,-2.139 0.029,-0.255 0.091,-0.496 0.188,-0.719 A 4.112,4.112 0 0 1 20.592,69.129 34.766,34.766 0 0 1 13.1,63.428 34.883,34.883 0 0 1 9.348,58.992 a 24.929,24.929 0 0 0 1.965,1.396 c 0.15,0.101 0.305,0.201 0.462,0.293 l 0.709,0.418 c 0.163,0.104 0.335,0.194 0.501,0.279 0.075,0.042 0.157,0.084 0.24,0.129 l 0.256,0.135 c 0.158,0.086 0.319,0.173 0.482,0.253 1.1,0.537 2.106,0.966 3.079,1.313 l 0.992,0.353 1.396,0.413 c 0.147,0.046 0.293,0.082 0.417,0.111 l 0.619,0.149 c 0.038,0.008 0.073,0.017 0.111,0.024 0.296,-1.049 0.891,-1.622 1.443,-1.932 -0.308,-0.036 -0.614,-0.087 -0.916,-0.137 z M 21.529,40.722 C 19.784,39.815 17.739,38.736 15.8,37.617 15.394,37.386 15,37.146 14.614,36.915 l -0.119,-0.07 -0.414,-0.257 a 36.296,36.296 0 0 1 -0.836,-0.526 l -0.596,-0.388 -0.585,-0.4 A 16.103,16.103 0 0 1 11.385,34.789 C 11.245,34.685 11.103,34.58 10.968,34.484 9.559,33.424 8.366,32.315 7.47,31.23 6.652,30.238 6.012,29.157 5.619,28.111 5.588,28.019 5.56,27.931 5.526,27.845 A 5.669,5.669 0 0 1 5.389,27.423 L 5.221,26.779 A 2.097,2.097 0 0 1 5.177,26.548 L 5.155,26.404 a 34.626,34.626 0 0 1 7.942,-12.29 34.913,34.913 0 0 1 5.904,-4.736 8.38,8.38 0 0 1 -0.683,-2.989 38.024,38.024 0 0 0 -7.259,5.688 C 3.928,19.206 0,28.688 0,38.77 0,43.567 0.891,48.224 2.589,52.559 3.122,51.681 3.878,50.891 4.827,50.223 A 35.109,35.109 0 0 1 4.624,27.91 c 0.011,0.061 0.026,0.119 0.038,0.181 0.02,0.088 0.039,0.18 0.059,0.278 0.204,0.875 0.648,2.228 1.616,3.692 0.845,1.283 2.015,2.604 3.434,3.879 1.355,1.205 2.973,2.432 4.806,3.646 a 100.611,100.611 0 0 0 5.679,3.464 c 0.826,0.479 1.688,0.958 2.52,1.422 l 1.571,0.873 c 0.171,-0.863 0.51,-1.748 1.158,-2.478 l 0.057,-0.056 z"
         fill="#2c3b8d"
         id="path1-7" /><path
         d="m 48.303,5.541 c 0.599,0.354 1.15,0.731 1.676,1.148 a 14.28,14.28 0 0 1 2.736,2.903 c 0.406,0.6 0.829,1.244 1.176,1.96 l 0.055,0.101 0.078,0.159 0.127,0.275 0.096,0.202 c 0.056,0.116 0.109,0.229 0.158,0.351 l 0.063,0.156 c 0.137,0.324 0.274,0.661 0.396,1.012 0.104,0.273 0.194,0.553 0.287,0.849 0.043,0.126 0.08,0.249 0.119,0.365 0.031,0.112 0.064,0.227 0.1,0.341 0.082,0.306 0.178,0.622 0.252,0.946 0.08,0.3 0.146,0.614 0.215,0.917 0.028,0.137 0.063,0.275 0.09,0.405 0.023,0.119 0.049,0.238 0.07,0.357 0.064,0.33 0.133,0.673 0.188,1.018 0.181,1.06 0.332,2.216 0.461,3.535 a 64.412,64.412 0 0 0 2.774,-0.376 c -0.028,-0.22 -0.059,-0.443 -0.093,-0.661 A 41.233,41.233 0 0 0 58.789,18.499 29.687,29.687 0 0 0 58.026,15.626 18.289,18.289 0 0 0 57.674,14.581 L 57.553,14.244 C 57.508,14.13 57.462,14.017 57.42,13.905 57.293,13.583 57.16,13.247 57.013,12.934 56.282,11.279 55.312,9.723 54.201,8.428 53.977,8.172 53.741,7.921 53.505,7.683 53.487,7.665 53.468,7.649 53.451,7.631 a 34.758,34.758 0 0 1 8.961,6.48 35.313,35.313 0 0 1 3.982,4.762 l 1.445,-1.277 0.368,-0.322 c 0.056,-0.063 0.176,-0.207 0.261,-0.307 L 68.53,16.893 A 38.31,38.31 0 0 0 64.449,12.074 C 57.318,4.944 47.838,1.019 37.753,1.019 c -1.386,0 -2.766,0.075 -4.126,0.223 a 8.363,8.363 0 0 1 1.259,2.796 35.078,35.078 0 0 1 13.417,1.503 z m 23.421,16.715 c -0.326,0.295 -0.604,0.562 -0.712,0.684 -0.096,0.146 -0.305,0.556 -0.417,0.779 -0.259,0.51 -0.463,0.915 -0.758,1.261 -0.015,0.017 -0.029,0.027 -0.042,0.044 a 34.748,34.748 0 0 1 2.023,6.347 c -0.059,0.192 -0.117,0.388 -0.18,0.577 l -0.104,0.301 c -0.075,0.217 -0.149,0.436 -0.222,0.652 l -0.023,0.074 c -0.097,0.285 -0.193,0.579 -0.305,0.862 l -0.17,0.449 c -0.174,0.466 -0.355,0.945 -0.557,1.408 l -0.382,0.914 -0.62,1.356 c -0.045,0.095 -0.09,0.188 -0.139,0.28 a 5.875,5.875 0 0 0 -0.078,0.16 l -0.447,0.888 c -0.082,0.168 -0.176,0.332 -0.267,0.498 -0.067,0.123 -0.136,0.246 -0.2,0.37 l -0.043,0.075 c -0.139,0.259 -0.278,0.524 -0.437,0.78 l -0.498,0.844 -0.624,0.98 a 4.73,4.73 0 0 1 -0.17,0.263 l -0.275,0.405 c -0.068,0.095 -0.135,0.194 -0.2,0.292 -0.115,0.169 -0.234,0.346 -0.361,0.512 l -0.58,0.788 a 37.88,37.88 0 0 1 -0.383,0.492 c -0.073,0.093 -0.146,0.186 -0.224,0.281 -0.146,0.192 -0.309,0.385 -0.465,0.569 l -0.462,0.547 -0.331,0.367 c -0.369,0.42 -0.778,0.856 -1.327,1.414 l -0.239,0.232 c -0.017,0.02 -0.036,0.037 -0.057,0.057 -0.078,-0.26 -0.152,-0.529 -0.223,-0.801 -0.373,-1.507 -0.629,-3.249 -0.789,-5.326 A 84.2,84.2 0 0 1 60.269,40.03 224.15,224.15 0 0 1 60.176,37.029 L 60.149,35.56 a 674.24,674.24 0 0 0 -0.104,-4.722 l -0.022,-0.644 c -1.104,0.277 -2.048,0.453 -2.916,0.539 0,0.067 0.003,0.131 0.003,0.197 0.026,0.687 0.046,1.375 0.065,2.063 0.039,1.357 0.084,2.762 0.149,4.132 0.039,0.973 0.098,1.975 0.183,3.065 0.078,1.092 0.174,2.076 0.297,3.01 0.149,1.186 0.298,2.085 0.475,2.921 0.238,1.119 0.467,2.002 0.729,2.784 0.217,0.645 0.445,1.223 0.691,1.758 -0.031,0.024 -0.061,0.052 -0.088,0.073 -0.094,0.075 -0.183,0.151 -0.273,0.228 -0.152,0.129 -0.313,0.263 -0.477,0.388 l -0.112,0.087 c -0.212,0.166 -0.43,0.34 -0.655,0.502 a 17.82,17.82 0 0 1 -0.654,0.474 l -0.124,0.086 c -0.607,0.424 -1.116,0.755 -1.602,1.04 -0.177,0.104 -0.356,0.21 -0.537,0.31 A 54.873,54.873 0 0 0 54.641,52.337 72.241,72.241 0 0 0 52.086,46.363 L 51.34,44.842 c -0.166,-0.331 -0.342,-0.66 -0.514,-0.989 -0.092,-0.18 -0.187,-0.356 -0.281,-0.536 -0.229,-0.446 -0.475,-0.896 -0.711,-1.328 L 49.362,41.144 48.86,40.249 C 48.543,39.69 48.214,39.121 47.877,38.54 a 407.67,407.67 0 0 0 -1.244,3.56 l 0.754,1.283 c 0.242,0.412 0.496,0.838 0.728,1.26 0.101,0.176 0.2,0.352 0.298,0.527 0.178,0.314 0.354,0.626 0.525,0.938 l 0.789,1.453 a 91.01,91.01 0 0 1 2.771,5.646 c 0.243,0.547 0.482,1.103 0.714,1.658 l -2.056,1.09 -2.021,0.979 0.248,0.893 c 0.012,0.044 0.021,0.088 0.033,0.134 0.093,0.435 0.231,1.135 0.342,1.91 l 0.39,-0.191 c 0.765,-0.375 1.556,-0.765 2.331,-1.167 l 1.762,-0.973 c 0.11,0.313 0.211,0.607 0.305,0.895 0.539,1.614 0.939,3.15 1.195,4.563 0.239,1.383 0.348,2.594 0.319,3.595 a 13.389,13.389 0 0 1 -0.085,1.157 c -0.008,0.062 -0.018,0.12 -0.021,0.171 -0.039,0.246 -0.081,0.47 -0.129,0.675 a 34.877,34.877 0 0 1 -17.657,5.022 c 0.739,-0.217 1.611,-0.51 2.546,-0.921 a 16.84,16.84 0 0 0 2.191,-1.15 12.62,12.62 0 0 0 2.207,-1.746 c 0.139,-0.137 0.271,-0.283 0.398,-0.429 l 0.115,-0.127 0.012,-0.011 c 0.051,-0.067 0.104,-0.133 0.154,-0.197 0.109,-0.134 0.221,-0.272 0.324,-0.421 l 0.082,-0.118 c 0.121,-0.178 0.247,-0.36 0.354,-0.556 l 0.175,-0.302 a 0.343,0.343 0 0 0 0.032,-0.061 l 0.265,-0.525 0.16,-0.383 c -0.728,0.366 -1.644,0.69 -2.797,1.015 -0.02,0.003 -0.035,0.008 -0.054,0.013 -0.034,0.049 -0.062,0.098 -0.097,0.146 l -0.131,0.195 c -0.048,0.064 -0.1,0.129 -0.146,0.194 a 5.031,5.031 0 0 1 -0.235,0.297 11.1,11.1 0 0 1 -1.758,1.666 c -0.542,0.424 -1.142,0.819 -1.882,1.248 a 24.44,24.44 0 0 1 -3.388,1.6 c -0.518,0.197 -0.98,0.358 -1.324,0.476 L 35.32,73.538 A 35.082,35.082 0 0 1 28.9,72.487 c -0.301,0.422 -0.453,0.837 -0.453,1.541 0,0.489 -0.038,0.924 -0.1,1.316 a 38.007,38.007 0 0 0 9.405,1.178 c 10.085,0 19.565,-3.928 26.696,-11.057 7.133,-7.132 11.061,-16.612 11.061,-26.696 A 37.6,37.6 0 0 0 71.724,22.256 Z m -9.312,41.172 a 34.891,34.891 0 0 1 -5.73,4.632 c 0.135,-0.469 0.236,-0.92 0.305,-1.375 0.183,-1.13 0.229,-2.465 0.144,-3.853 -0.104,-1.514 -0.363,-3.164 -0.775,-4.905 a 33.794,33.794 0 0 0 -0.344,-1.341 c 0.054,-0.029 0.104,-0.059 0.155,-0.086 l 0.081,-0.046 c 0.3,-0.171 0.598,-0.353 0.917,-0.551 a 30.795,30.795 0 0 0 1.742,-1.2 c 0.311,-0.236 0.584,-0.448 0.828,-0.647 0.243,-0.19 0.482,-0.396 0.714,-0.593 l 0.09,-0.076 c 0.173,-0.143 0.335,-0.292 0.497,-0.438 0.191,0.258 0.383,0.489 0.586,0.707 0.096,0.102 0.192,0.201 0.287,0.297 a 7.736,7.736 0 0 0 0.709,0.636 c 0.055,0.048 0.108,0.092 0.17,0.137 l 0.32,0.227 c 0.146,0.106 0.305,0.214 0.439,0.284 l 0.348,0.193 0.532,0.264 0.14,0.054 c 0.316,0.133 0.675,0.235 1.096,0.312 0.718,0.114 1.451,0.058 2.057,-0.163 a 4.23,4.23 0 0 0 0.541,-0.231 34.719,34.719 0 0 1 -5.849,7.762 z m 6.229,-9.131 a 3.96,3.96 0 0 1 -0.578,0.292 3.114,3.114 0 0 1 -0.648,0.188 c -0.193,0.043 -0.42,0.056 -0.707,0.048 a 3.278,3.278 0 0 1 -0.736,-0.128 c -0.042,-0.016 -0.084,-0.03 -0.127,-0.045 a 1.68,1.68 0 0 1 -0.25,-0.097 3.055,3.055 0 0 1 -0.186,-0.081 L 65.113,54.32 64.834,54.145 64.43,53.852 C 64.332,53.787 64.26,53.718 64.18,53.646 64.144,53.614 64.11,53.582 64.071,53.55 l -0.174,-0.154 c -0.035,-0.029 -0.068,-0.065 -0.104,-0.102 a 1.53,1.53 0 0 0 -0.07,-0.075 L 63.69,53.187 a 8.022,8.022 0 0 1 -0.623,-0.734 7.882,7.882 0 0 1 -0.574,-0.89 l 0.045,-0.048 c 0.093,-0.098 0.186,-0.19 0.283,-0.289 0.156,-0.163 0.312,-0.33 0.463,-0.497 l 0.248,-0.269 c 0.377,-0.424 0.871,-0.988 1.346,-1.587 l 0.324,-0.411 0.451,-0.605 c 0.158,-0.211 0.32,-0.427 0.471,-0.65 0.066,-0.1 0.139,-0.197 0.205,-0.298 0.131,-0.183 0.258,-0.365 0.385,-0.558 l 0.552,-0.865 c 0.124,-0.191 0.239,-0.389 0.349,-0.58 0.061,-0.104 0.119,-0.21 0.182,-0.314 l 0.262,-0.444 c 0.057,-0.098 0.107,-0.195 0.161,-0.293 l 0.087,-0.163 0.1,-0.188 c 0.128,-0.239 0.258,-0.48 0.385,-0.727 l 0.445,-0.922 c 0.145,-0.282 0.273,-0.575 0.396,-0.86 l 0.135,-0.308 c 0.102,-0.233 0.209,-0.475 0.307,-0.721 l 0.369,-0.954 c 0.023,-0.056 0.046,-0.11 0.065,-0.166 0.042,-0.104 0.081,-0.209 0.12,-0.316 l 0.494,-1.455 0.288,-0.974 c 0.155,-0.502 0.282,-1.017 0.405,-1.516 0.036,-0.152 0.074,-0.306 0.109,-0.459 0.082,-0.307 0.146,-0.621 0.209,-0.922 l 0.015,-0.075 c 0,-0.005 0.003,-0.01 0.003,-0.013 a 35.01,35.01 0 0 1 -2.998,20.823 5.967,5.967 0 0 1 -0.513,0.358 z"
         fill="#eb5c2b"
         id="path2-5" /><path
         d="m 29.648,68.896 v -0.758 c 0,0 0.896,-0.871 3.099,-0.953 2.197,-0.081 7.495,-0.814 10.998,-1.793 3.504,-0.978 3.504,-1.628 3.749,-2.77 0.246,-1.141 -0.406,-4.156 -0.406,-4.156 l -1.224,-4.398 c 0,0 -0.814,-2.282 -0.938,-3.506 -0.122,-1.222 -0.324,-3.586 -0.324,-3.993 0,-0.407 -0.732,-0.814 -0.732,-0.814 0,0 -0.531,-0.813 -0.328,-1.753 0.205,-0.936 1.305,-4.032 2.242,-6.681 0.938,-2.647 1.142,-7.984 1.344,-8.898 0.203,-0.914 1.222,-1.978 1.222,-1.978 0,0 0.938,0.407 1.835,0.814 0.895,0.407 3.176,0.976 4.44,1.1 1.263,0.122 2.483,0.122 4.888,-0.49 2.406,-0.609 6.193,-3.34 6.479,-3.503 0.286,-0.163 1.794,-0.651 2.037,-0.937 0.244,-0.285 0.732,-1.507 1.142,-1.997 0.405,-0.489 1.587,-1.508 1.587,-1.508 l 0.123,-0.814 c 0,0 0.449,-0.531 0.53,-0.692 0.083,-0.163 0.042,-0.612 -0.163,-0.773 -0.205,-0.165 -1.1,1.1 -1.428,1.385 -0.324,0.285 -3.258,2.894 -4.155,3.626 -0.893,0.733 -2.606,1.017 -3.788,1.426 -1.181,0.407 -5.825,0.978 -5.988,0.896 -0.163,-0.082 -0.814,-0.489 -1.711,-0.733 -0.896,-0.246 -2.484,-0.448 -2.975,-0.855 -0.491,-0.407 -1.547,-1.794 -3.178,-2.323 -1.629,-0.529 -3.013,0.244 -3.788,0.367 -0.775,0.122 -1.388,0.04 -1.548,-0.285 -0.107,-0.216 -0.041,-0.323 0.056,-0.383 0,0 0.054,-0.023 0.136,-0.063 0.003,-0.002 0.01,-0.002 0.011,-0.003 0.007,-0.002 0.012,-0.007 0.02,-0.01 0.344,-0.158 1.111,-0.526 1.181,-0.692 0.096,-0.215 -0.128,-1.009 -0.094,-1.816 0.07,-0.401 0.18,-1.049 0.605,-1.148 0.529,-0.121 0.121,-0.896 0,-1.08 -0.123,-0.183 -0.449,-1.162 -0.897,-2.871 -0.448,-1.712 -1.956,-1.753 -2.853,-1.753 -0.895,0 -3.056,-0.651 -4.398,1.061 -1.344,1.711 -0.978,3.544 0,5.132 0.976,1.59 0.609,3.179 0.609,3.179 -0.487,1.346 -1.302,0.692 -2.118,0.692 -0.814,0 -1.547,-0.163 -2.768,0 -1.224,0.163 -3.262,0.814 -3.262,0.814 h -3.501 c -1.225,0 -2.121,0.651 -2.121,0.651 0,0 -0.49,-0.568 -0.327,-2.036 0.165,-1.466 1.142,-5.378 1.549,-6.192 0.407,-0.814 1.305,-1.386 2.364,-1.466 1.057,-0.083 1.79,-1.143 1.79,-1.143 l 0.176,-0.349 a 6.03,6.03 0 1 0 -5.399,-0.576 0.732,0.732 0 0 0 -0.153,0.111 c -0.244,0.244 -0.814,0.731 -1.302,1.792 -0.49,1.058 -1.956,4.725 -2.364,5.866 -0.407,1.141 -1.062,3.096 -1.223,5.132 -0.163,2.04 0.161,1.55 3.504,2.526 3.341,0.978 6.926,0.328 8.067,0.328 1.139,0 0.978,0.732 1.711,1.547 0.733,0.815 0.651,2.852 0.814,4.888 0.161,2.04 -1.47,4.891 -1.875,5.298 -0.409,0.407 -0.733,0.57 -0.815,2.296 -0.082,1.724 -1.875,2.838 -2.525,3.57 -0.652,0.733 -0.733,2.038 -0.733,2.933 0,0.897 -1.223,2.527 -1.547,3.586 -0.189,0.615 -0.077,0.927 0.05,1.082 -0.405,-0.274 -1.45,-0.855 -3.064,-0.918 -2.121,-0.081 -4.24,0.733 -4.24,0.733 0,0 0.49,-1.629 -0.652,-2.771 -1.139,-1.141 -6.19,1.059 -8.88,2.037 -2.689,0.977 -4.237,2.77 -4.156,4.725 0.082,1.957 2.444,1.305 3.91,0.733 1.466,-0.568 3.587,-1.059 4.646,-0.895 1.061,0.161 2.118,-0.081 2.118,-0.081 0,0 0.572,-1.141 1.061,-1.346 0.487,-0.202 4.97,1.995 7.741,3.789 2.771,1.792 5.13,0.651 6.19,0 1.061,-0.653 2.035,-3.789 2.035,-3.789 l 2.53,-0.692 c 0,0 1.302,2.526 1.466,5.622 0.082,1.563 1.012,1.94 1.717,1.976 -1.45,0.419 -3.051,1.429 -4.244,2.099 -1.305,0.733 -2.444,0.651 -5.866,0.978 -3.423,0.327 -3.095,0 -3.993,0.081 -0.896,0.082 -0.572,2.362 -0.518,3.806 0.051,1.44 1.007,1.246 0.925,1.653 -0.083,0.409 -0.897,0.733 -0.897,0.733 -0.243,2.201 1.061,5.622 1.631,5.787 0.572,0.163 1.549,0.163 1.549,-2.281 0,-2.445 1.303,-3.341 2.199,-4.483 0.895,-1.142 1.383,-0.652 1.383,-0.652 z"
         fill="#2c3b8d"
         id="path3-3" /></g></g><g
     id="g52"
     style="fill:url(#linearGradient70);fill-opacity:1;filter:url(#filter86)"
     transform="matrix(1.0135097,0,0,0.82750698,-19.135409,34.930366)"><g
       id="g2"
       inkscape:export-filename="logo_baba.svg"
       inkscape:export-xdpi="96"
       inkscape:export-ydpi="96"><g
         class="logo"
         id="item-052zv9z7fc9u06409969f9hjecqqhwfe"
         transform="matrix(0.23931164,0.36720863,-0.36720863,0.23931164,97.385168,-22.695409)"
         style="fill:url(#linearGradient6);fill-opacity:1"><path
           fill-rule="evenodd"
           clip-rule="evenodd"
           d="m 107.917,13.716 -23.064,8.731 21.637,-5.853 z m -1.231,3.715 -26.1,7.739 26.167,-4.906 c 0,-10e-4 -0.705,-0.635 -0.067,-2.833 z m -0.024,3.831 c -0.253,0.09 -23.775,4.46 -23.775,4.46 l 24.57,-2.617 z m 1.564,2.503 c -0.252,0.091 -18.408,2.341 -18.408,2.341 l 20.014,-0.658 z"
           fill="#2f4260"
           id="path1-8"
           style="fill:url(#linearGradient2);fill-opacity:1" /><path
           d="m 115.691,10.4 a 8.371,8.371 0 0 0 -2.652,16.529 8.3701993,8.3701993 0 0 0 2.652,-16.529 z m -0.661,0.516 0.009,0.011 c 0.187,0.016 0.372,0.03 0.559,0.059 a 7.747,7.747 0 0 1 4.846,2.83 l -1.342,-0.101 -3.443,-1.963 -0.619,-0.824 c -0.092,-0.007 -0.184,-0.024 -0.274,-0.029 0.089,0.004 0.177,0.009 0.264,0.017 z m 0.585,1.264 3.229,1.838 0.357,2.217 -2.481,1.373 -2.572,-1.358 -0.493,-3.055 z m -2.231,8.987 2.557,-0.48 2.178,2.282 -0.928,1.749 -3.83,0.531 -1.32,-1.549 z m -1.679,2.331 -2.087,-0.273 c -0.764,-0.868 -1.524,-2.594 -1.833,-3.338 l 1.154,-1.69 2.977,0.446 1.128,2.328 z m 2.057,-7.168 -1.895,1.908 -2.797,-0.42 -0.534,-2.46 c 0.807,-0.777 2.319,-2.006 2.933,-2.498 l 1.788,0.344 z m -6.648,-0.479 0.026,-0.015 a 7.759,7.759 0 0 1 5.459,-4.727 c 0.107,-0.03 0.214,-0.064 0.321,-0.088 0.082,-0.015 0.162,-0.03 0.244,-0.041 -0.192,0.029 -0.376,0.085 -0.565,0.129 -0.289,0.08 -0.574,0.174 -0.833,0.302 l -0.669,1.244 c -0.732,0.588 -2.281,1.859 -3.008,2.592 l 0.031,0.029 c -0.334,0.187 -0.783,0.445 -0.98,0.559 -0.052,0.133 -0.116,0.259 -0.16,0.394 0.039,-0.127 0.085,-0.253 0.134,-0.378 z m 2.78,9.178 c -0.031,-0.022 -0.052,-0.055 -0.081,-0.079 a 7.764,7.764 0 0 1 -3.208,-6.06 l -0.016,-0.021 c -0.004,-0.116 -0.002,-0.233 -0.002,-0.348 -0.002,0.125 0.016,0.245 0.018,0.369 l 0.721,0.912 c 0.211,0.532 1.045,2.547 1.936,3.608 l 0.088,1.092 c 0.131,0.167 0.295,0.31 0.464,0.447 0.154,0.112 0.303,0.231 0.467,0.333 a 6.772,6.772 0 0 1 -0.387,-0.253 z m 3.238,1.313 a 7.762,7.762 0 0 1 -2.453,-0.828 c 0.859,0.432 1.707,0.61 1.707,0.61 l 0.961,-0.479 3.94,-0.544 1.031,0.26 a 7.74,7.74 0 0 1 -5.186,0.981 z m 7.16,-4.645 -1.916,0.972 -2.078,-2.177 0.463,-2.459 2.645,-1.464 1.586,1.438 z m 1.75,-1.8 c -0.197,1.225 -0.855,2.478 -1.036,2.808 l 0.002,0.004 c -0.071,0.116 -0.06,0.101 -0.002,-0.004 l -0.367,-0.733 h 0.002 l 0.772,-4.068 -0.031,-0.006 0.628,-0.666 c 0.161,0.856 0.178,1.754 0.032,2.665 z M 48.672,50.45 c -0.226,-0.796 -0.341,-1.218 -0.386,-1.493 a 63.294,63.294 0 0 1 -6.961,0.747 63.321,63.321 0 0 1 -3.256,0.075 c 0.127,0.31 0.249,0.625 0.355,0.946 0.615,1.869 1.798,3.505 1.985,3.783 0.187,0.277 0.205,0.187 0.205,0.187 0,0 0.048,0.12 0.555,0.7 0.507,0.578 1.605,2.172 1.605,2.172 0,0 -0.024,0 -1.304,-0.157 -1.28,-0.157 -2.1,-0.302 -4.284,-0.061 -2.184,0.241 -2.521,0.736 -5.067,1.558 -2.547,0.82 -5.805,0.826 -6.662,0.676 -0.856,-0.151 -1.375,-0.436 -2.25,-0.857 -0.875,-0.421 -1.448,-0.338 -1.864,-0.055 -0.417,0.283 -0.7,0.972 -0.725,1.146 -0.023,0.176 -0.591,0.03 -0.477,0.356 0.115,0.325 0.224,0.224 0.205,0.403 -0.018,0.182 -0.105,0.616 -0.25,0.719 -0.145,0.103 -0.383,0.016 -0.316,0.274 0.066,0.26 0.223,0.229 0.247,0.38 0.024,0.151 0.046,0.803 -0.142,1.551 -0.188,0.748 -1.025,3.168 -1.188,3.693 -0.163,0.524 -0.401,0.229 -0.401,0.5 0,0.271 0.058,0.248 0.196,0.604 0.138,0.356 -0.006,1.098 0.012,1.563 0.019,0.465 -0.208,0.314 -0.208,0.502 0,0.187 0.1,0.246 0.208,0.404 0.108,0.156 0.133,0.813 -0.006,1.02 -0.139,0.205 -0.313,0.301 -0.108,0.506 0.205,0.205 0.127,0.072 0.235,0.436 0.108,0.361 0.241,0.723 0.664,0.615 0.422,-0.109 1.146,-0.7 2.027,-2.16 0.881,-1.461 1.701,-2.354 3.029,-3.85 1.327,-1.497 0.663,-1.533 0.965,-1.701 0.302,-0.17 0.652,-0.679 3.633,-1.231 2.98,-0.554 2.739,-0.218 3.391,0.205 0.652,0.423 0.579,0.362 2.075,0.313 1.497,-0.048 7.241,-0.181 7.627,-0.35 0.386,-0.169 0.362,-0.664 0.869,-0.809 0.507,-0.145 2.28,0.049 2.715,0 0.435,-0.049 1.689,-0.229 3.403,-1.557 1.714,-1.328 1.642,-2.812 1.207,-4.936 -0.435,-2.124 -1.086,-5.163 -1.558,-6.817 z"
           fill="#2f4260"
           id="path2-7"
           style="fill:url(#linearGradient3);fill-opacity:1" /><path
           d="m 93.636,30.177 c -0.107,-0.217 -0.664,-0.313 -3.391,-0.338 -2.727,-0.023 -3.838,-0.145 -5.43,-0.229 -1.594,-0.085 -1.545,-0.301 -1.98,-0.459 -0.434,-0.158 -1.363,-0.387 -1.58,0 -0.217,0.387 -0.459,-0.012 -2.643,-0.387 -2.184,-0.373 -3.873,-0.736 -5.527,-1.314 -1.652,-0.58 -1.025,-0.556 -3.463,-1.063 -2.438,-0.507 -6.238,-1.05 -6.781,-0.807 -0.543,0.244 -1.424,0 -2.679,-0.376 -1.255,-0.376 -2.136,-0.229 -2.896,0.073 -0.76,0.301 -0.688,0.422 -3.064,0.156 -2.378,-0.266 -4.345,-0.217 -4.345,-0.217 0,0 0.446,-0.482 0.772,-1.496 0.325,-1.014 0.108,-0.326 0.797,-1.268 0.688,-0.941 0.434,-1.521 1.146,-1.859 0.713,-0.338 0.833,-1.206 0.833,-1.206 0,0 0.266,0.108 1.158,0.411 0.894,0.301 1.304,0.361 2.908,0.76 1.605,0.398 1.437,0.771 1.545,0.748 0.108,-0.023 0.833,-0.531 0.833,-0.531 0,0 1.942,0.29 3.125,0.652 1.182,0.361 1.895,0.736 3.283,0.35 1.387,-0.387 1.23,-0.567 1.084,-1.738 -0.145,-1.17 -0.676,-1.617 -1.604,-2.438 -0.93,-0.82 -1.787,-0.555 -2.643,-0.676 -0.857,-0.121 -1.666,-1.074 -2.487,-1.641 -0.82,-0.567 -1.073,-0.182 -1.544,-0.217 -0.471,-0.037 -0.797,-0.869 -1.653,-1.328 -0.857,-0.459 -1.063,-0.434 -1.617,-1.195 -0.555,-0.76 -1.104,-0.861 -1.104,-0.861 0,0 0.12,-0.199 0.217,-0.592 0.097,-0.393 0.362,-0.115 0.688,-1.189 0.326,-1.074 0.459,-2.365 0.229,-3.607 -0.229,-1.243 0.169,-3.174 0,-3.85 C 55.654,1.769 54.701,0.659 52.734,0.152 50.766,-0.355 49.669,0.513 48.583,1.021 47.497,1.527 47.315,2.601 46.825,3.495 46.334,4.389 46.507,4.92 46.734,5.873 46.961,6.826 46.688,6.729 46.724,7.369 46.76,8.008 46.7,8.129 46.398,8.213 46.096,8.299 45.373,8.166 45.373,8.166 L 44.708,7.944 C 44.043,7.723 42.813,7.486 42.077,7.752 c -0.736,0.266 -2.69,0.12 -3.777,0.506 -1.086,0.387 -1.629,0.29 -3.391,1.051 -1.762,0.76 -2.16,0.578 -3.367,0.977 -1.206,0.398 -1.665,0.41 -2.835,0.833 -1.171,0.423 -2.39,-0.036 -2.534,0.241 -0.146,0.277 -0.109,1.304 -0.109,1.473 0,0.169 -0.181,0.108 -1.424,0.277 -1.242,0.169 -2.353,0.784 -4.283,1.617 -1.932,0.832 -5.913,3.487 -6.915,4.139 -1.002,0.652 -0.446,0.277 -2.039,0.82 -1.593,0.543 -1.834,1.352 -1.135,2.993 0.7,1.642 0.857,2.112 1.46,1.737 0.604,-0.373 2.004,-0.615 2.426,-1.049 0.423,-0.436 0.58,-1.787 1.497,-2.486 0.917,-0.699 2.474,-1.568 5.805,-2.401 3.33,-0.833 6.105,-2.052 6.274,-2.003 0.169,0.048 0.676,0.434 0.941,0.35 0.265,-0.084 0.567,-0.313 1.315,-0.482 0.748,-0.169 1.304,-0.447 1.617,-0.387 0.313,0.06 0.869,0.098 1.532,0.037 0.664,-0.061 1.666,0.145 1.883,0.301 0.217,0.157 0.097,0.109 0.036,0.615 -0.061,0.508 0.182,0.93 0.169,1.461 -0.012,0.531 -0.289,1.436 -0.458,2.1 -0.169,0.664 0.06,1.158 -0.266,1.798 -0.326,0.64 -0.024,0.423 -0.277,1.292 -0.254,0.868 -0.676,0.107 -0.966,0.82 -0.29,0.711 -0.181,1.049 -0.797,1.363 -0.615,0.314 -1.05,0.555 -0.53,2.027 0.519,1.473 0.809,1.641 0.809,1.641 0,0 -0.314,1.086 -0.821,2.438 -0.507,1.352 0.29,3.379 0.146,4.752 -0.146,1.372 -0.024,2.537 0.435,4.444 0.458,1.907 1.279,3.282 2.027,3.886 0.748,0.604 0.507,0.844 1.037,0.844 0.531,0 0.121,0.266 0.652,0.797 0.076,0.076 0.166,0.185 0.261,0.308 a 70.56,70.56 0 0 0 5.25,-0.531 c 0,0 2.829,-0.419 6.926,-1.371 l -0.004,-0.007 c -0.338,-0.507 -0.688,-1.146 -1.496,-2.498 -0.808,-1.352 -1.255,-2.703 -1.255,-2.703 0,0 0.712,-0.023 1.412,-0.169 0.7,-0.145 0.604,-0.133 0.663,-1.352 0.061,-1.219 -0.06,-1.647 0.229,-1.858 0.29,-0.211 1.038,-0.494 3.059,-1.508 2.021,-1.014 5.884,-2.86 6.704,-3.126 0.82,-0.265 0.93,-0.351 1.991,-0.146 1.063,0.205 4.417,1.473 5.877,1.715 1.459,0.24 3.197,-0.17 4.439,-0.338 1.244,-0.17 4.309,-0.061 5.77,0.24 1.459,0.303 1.58,0.652 1.58,1.099 0,0.447 0.133,1.243 0.641,1.653 0.506,0.41 0.941,0.904 1.219,0.947 0.278,0.043 0.676,-0.15 0.875,-0.096 0.199,0.053 0.451,0.53 0.682,0.457 0.229,-0.072 0.072,-0.313 0.055,-0.434 -0.02,-0.121 0.096,-0.193 0.338,-0.299 0.24,-0.105 0.477,-0.202 0.693,-0.063 0.217,0.139 0.422,0.029 0.404,-0.14 -0.018,-0.169 -0.145,-0.235 0.205,-0.489 0.35,-0.253 2.438,-1.652 3.053,-1.791 0.615,-0.139 2.951,-0.145 3.162,-0.199 0.211,-0.054 0.26,0.187 0.525,0.199 0.266,0.012 0.24,-0.254 0.234,-0.375 -0.006,-0.12 0.416,-0.331 0.615,-0.471 0.199,-0.139 0.363,0.127 0.502,0.14 0.139,0.012 0.24,-0.181 0.223,-0.345 -0.018,-0.162 0.453,-0.488 0.688,-0.609 0.236,-0.12 0.211,0.055 0.393,0 0.182,-0.054 0.254,-0.283 0.26,-0.428 0.006,-0.145 0.525,-0.436 0.91,-0.803 0.388,-0.366 0.449,-0.789 0.339,-1.006 z"
           fill="#e82c00"
           id="path3-9"
           style="fill:url(#linearGradient4);fill-opacity:1" /><path
           d="m 0,39.483 c 0,0 19.254,8.52 41.727,5.366 0,0 16.771,-2.482 27.84,-9.123 0,0 1.073,-0.671 2.55,-0.604 0,0 2.079,0.269 2.885,1.006 0,0 -12.679,11.002 -33.677,12.075 C 20.327,49.277 0,39.483 0,39.483 Z"
           fill="#2f4260"
           id="path4-2"
           style="fill:url(#linearGradient5);fill-opacity:1" /></g><text
         xml:space="preserve"
         style="font-style:normal;font-variant:normal;font-weight:normal;font-stretch:normal;font-size:8.51316px;font-family:Audiowide;-inkscape-font-specification:'Audiowide, Normal';font-variant-ligatures:normal;font-variant-caps:normal;font-variant-numeric:normal;font-variant-east-asian:normal;fill:url(#linearGradient7);fill-opacity:1;stroke-width:0.709422"
         x="52.619595"
         y="14.172249"
         id="text1"><tspan
           id="tspan1"
           style="font-style:normal;font-variant:normal;font-weight:normal;font-stretch:normal;font-size:8.51316px;font-family:Audiowide;-inkscape-font-specification:'Audiowide, Normal';font-variant-ligatures:normal;font-variant-caps:normal;font-variant-numeric:normal;font-variant-east-asian:normal;fill:url(#linearGradient7);fill-opacity:1;stroke-width:0.709422"
           x="52.619595"
           y="14.172249">BABA</tspan></text><text
         xml:space="preserve"
         style="font-style:normal;font-variant:normal;font-weight:600;font-stretch:normal;font-size:21.4641px;font-family:Poppins;-inkscape-font-specification:'Poppins, Semi-Bold';font-variant-ligatures:normal;font-variant-caps:normal;font-variant-numeric:normal;font-variant-east-asian:normal;fill:url(#linearGradient8);fill-opacity:1;stroke-width:1.53252"
         x="46.394611"
         y="31.281219"
         id="text2"><tspan
           id="tspan2"
           x="46.394611"
           y="31.281219"
           style="font-style:normal;font-variant:normal;font-weight:normal;font-stretch:normal;font-size:21.4641px;font-family:Audiowide;-inkscape-font-specification:'Audiowide, Normal';font-variant-ligatures:normal;font-variant-caps:normal;font-variant-numeric:normal;font-variant-east-asian:normal;fill:url(#linearGradient8);fill-opacity:1;stroke-width:1.53252">AMIGOS</tspan></text><text
         xml:space="preserve"
         style="font-style:normal;font-variant:normal;font-weight:normal;font-stretch:normal;font-size:10.6502px;font-family:Audiowide;-inkscape-font-specification:'Audiowide, Normal';font-variant-ligatures:normal;font-variant-caps:normal;font-variant-numeric:normal;font-variant-east-asian:normal;fill:url(#linearGradient9);fill-opacity:1;stroke-width:0.887506"
         x="112.20828"
         y="15.274444"
         id="text42"><tspan
           id="tspan42"
           style="font-style:normal;font-variant:normal;font-weight:normal;font-stretch:normal;font-size:10.6502px;font-family:Audiowide;-inkscape-font-specification:'Audiowide, Normal';font-variant-ligatures:normal;font-variant-caps:normal;font-variant-numeric:normal;font-variant-east-asian:normal;fill:url(#linearGradient9);fill-opacity:1;stroke-width:0.887506"
           x="112.20828"
           y="15.274444">DOS</tspan></text></g></g></svg>
